<svg aria-hidden="true" style="position: absolute; width: 0; height: 0; overflow: hidden;" version="1.1" xmlns="http://www.w3.org/2000/svg" xmlns:xlink="http://www.w3.org/1999/xlink">
<defs>
<symbol id="icon-github" viewBox="0 0 32 32">
<title>github</title>
<path d="M16 0.396c-8.84 0-16 7.164-16 16 0 7.071 4.584 13.067 10.94 15.18 0.8 0.151 1.093-0.344 1.093-0.769 0-0.38-0.013-1.387-0.020-2.72-4.451 0.965-5.389-2.147-5.389-2.147-0.728-1.847-1.78-2.34-1.78-2.34-1.449-0.992 0.112-0.972 0.112-0.972 1.607 0.112 2.451 1.648 2.451 1.648 1.427 2.447 3.745 1.74 4.66 1.331 0.144-1.035 0.556-1.74 1.013-2.14-3.553-0.4-7.288-1.776-7.288-7.907 0-1.747 0.62-3.173 1.647-4.293-0.18-0.404-0.72-2.031 0.14-4.235 0 0 1.34-0.429 4.4 1.64 1.28-0.356 2.64-0.532 4-0.54 1.36 0.008 2.72 0.184 4 0.54 3.040-2.069 4.38-1.64 4.38-1.64 0.86 2.204 0.32 3.831 0.16 4.235 1.020 1.12 1.64 2.547 1.64 4.293 0 6.147-3.74 7.5-7.3 7.893 0.56 0.48 1.080 1.461 1.080 2.96 0 2.141-0.020 3.861-0.020 4.381 0 0.42 0.28 0.92 1.1 0.76 6.401-2.099 10.981-8.099 10.981-15.159 0-8.836-7.164-16-16-16z"></path>
</symbol>
<symbol id="icon-flag" viewBox="0 0 28 32">
<title>flag</title>
<path d="M13.5 1h-11c-0.276 0-0.5 0.224-0.5 0.5v15c0 0.276 0.224 0.5 0.5 0.5h11.002c0.251 0 1.498 0.074 1.498 1.5 0 0.276 0.224 0.5 0.5 0.5s0.5-0.224 0.5-0.5v-15.016c-0.027-0.859-0.584-2.484-2.5-2.484zM15 16.456c-0.501-0.337-1.088-0.456-1.5-0.456h-10.5v-14h10.5c1.396 0 1.494 1.363 1.5 1.5v12.956zM26.329 21h-13.842c0.006 0.001-0.703 0.009-1.14-0.419-0.251-0.247-0.379-0.61-0.379-1.081 0-0.276-0.224-0.5-0.5-0.5s-0.5 0.224-0.5 0.5c0 0.754 0.231 1.36 0.688 1.803 0.687 0.665 1.648 0.697 1.819 0.697 0.015 0 13.854 0 13.854 0 0.389 0 0.719-0.157 0.931-0.443 0.281-0.379 0.275-0.863 0.185-1.162-0.563-1.853-3.541-5.883-4.379-6.996 0.807-1.241 3.815-5.94 4.379-7.793 0.091-0.299 0.097-0.782-0.185-1.162-0.212-0.287-0.542-0.444-0.931-0.444h-8.787c-0.276 0-0.5 0.224-0.5 0.5s0.224 0.5 0.5 0.5h8.787c0.099 0 0.119 0.028 0.127 0.039 0.047 0.062 0.055 0.197 0.031 0.275-0.596 1.961-4.412 7.772-4.451 7.831-0.117 0.178-0.108 0.41 0.021 0.579 0.038 0.050 3.839 5.018 4.43 6.961 0.023 0.079 0.016 0.213-0.031 0.276-0.008 0.011-0.028 0.039-0.127 0.039zM1 31.5v-31c0-0.276-0.224-0.5-0.5-0.5s-0.5 0.224-0.5 0.5v31c0 0.276 0.224 0.5 0.5 0.5s0.5-0.224 0.5-0.5z"></path>
</symbol>
<symbol id="icon-map" viewBox="0 0 41 32">
<title>map</title>
<path d="M9.239 31.927c0.009 0.006 0.021 0.003 0.030 0.009 0.073 0.037 0.149 0.064 0.231 0.064 0.044 0 0.088-0.006 0.132-0.018l10.868-2.966 10.868 2.966c0.044 0.012 0.088 0.018 0.132 0.018 0.082 0 0.158-0.027 0.23-0.065 0.010-0.005 0.021-0.003 0.030-0.009l9-5.5c0.191-0.117 0.281-0.348 0.22-0.563l-4.984-17.5c-0.041-0.147-0.148-0.267-0.29-0.326-0.142-0.057-0.301-0.048-0.436 0.026l-4.962 2.784c-0.24 0.135-0.326 0.44-0.191 0.681s0.439 0.327 0.682 0.191l4.409-2.475 4.707 16.526-8.015 4.899-1.904-15.231c-0.034-0.275-0.293-0.466-0.559-0.434-0.273 0.034-0.468 0.284-0.434 0.558l1.907 15.259-9.91-2.705v-2.73c0-0.276-0.224-0.5-0.5-0.5s-0.5 0.224-0.5 0.5v2.73l-9.911 2.705 1.907-15.259c0.034-0.274-0.16-0.524-0.434-0.558-0.272-0.032-0.524 0.159-0.559 0.434l-1.903 15.231-8.015-4.898 4.707-16.525 4.409 2.475c0.242 0.134 0.546 0.049 0.682-0.191 0.135-0.241 0.049-0.545-0.191-0.681l-4.963-2.785c-0.133-0.075-0.292-0.085-0.435-0.026s-0.249 0.178-0.29 0.326l-4.984 17.5c-0.062 0.216 0.028 0.446 0.22 0.563l8.999 5.5zM20.161 23.368c0.096 0.088 0.217 0.132 0.339 0.132 0.12 0 0.24-0.043 0.336-0.129 0.333-0.303 8.164-7.489 8.164-14.871 0-4.767-3.733-8.5-8.5-8.5s-8.5 3.733-8.5 8.5c0 7.254 7.828 14.56 8.161 14.868zM20.5 1c4.275 0 7.5 3.224 7.5 7.5 0 6.097-5.993 12.337-7.497 13.807-1.501-1.487-7.503-7.809-7.503-13.807 0-4.276 3.225-7.5 7.5-7.5zM25 8.5c0-2.481-2.019-4.5-4.5-4.5s-4.5 2.019-4.5 4.5 2.019 4.5 4.5 4.5 4.5-2.019 4.5-4.5zM20.5 12c-1.93 0-3.5-1.57-3.5-3.5s1.57-3.5 3.5-3.5 3.5 1.57 3.5 3.5-1.57 3.5-3.5 3.5z"></path>
</symbol>
<symbol id="icon-envelope" viewBox="0 0 38 32">
<title>envelope</title>
<path d="M20.060 0.413c-0.58-0.533-1.539-0.533-2.119 0l-17.688 10.671c-0.15 0.091-0.242 0.253-0.242 0.428v18.922c0 0.863 0.706 1.566 1.574 1.566h34.83c0.868 0 1.574-0.703 1.574-1.566v-18.922c0-0.175-0.092-0.337-0.242-0.428l-17.687-10.671zM18.504 1.24c0.035-0.021 0.066-0.046 0.095-0.074 0.108-0.107 0.25-0.166 0.401-0.166s0.293 0.059 0.4 0.166c0.029 0.028 0.061 0.053 0.095 0.074l17.227 10.394-12.478 7.436c-0.237 0.142-0.315 0.448-0.174 0.686 0.094 0.157 0.26 0.244 0.43 0.244 0.087 0 0.175-0.022 0.255-0.070l12.245-7.29v17.757l-16.935-11.266c-0.538-0.429-1.594-0.429-2.096-0.025l-16.969 11.286v-17.752l12.244 7.29c0.080 0.048 0.169 0.070 0.256 0.070 0.17 0 0.336-0.087 0.43-0.244 0.141-0.237 0.063-0.544-0.174-0.686l-12.479-7.436 17.227-10.394zM36.090 31h-34.188l16.656-11.086c0.173-0.138 0.712-0.137 0.919 0.025l16.613 11.061zM6.5 13h25c0.276 0 0.5-0.224 0.5-0.5s-0.224-0.5-0.5-0.5h-25c-0.276 0-0.5 0.224-0.5 0.5s0.224 0.5 0.5 0.5z"></path>
</symbol>
<symbol id="icon-magnifying-glass" viewBox="0 0 32 32">
<title>magnifying-glass</title>
<path d="M10.5 0c-5.79 0-10.5 4.71-10.5 10.5s4.71 10.5 10.5 10.5c2.725 0 5.203-1.052 7.071-2.76 0.022 0.039 0.042 0.080 0.076 0.114l2.151 2.151c-0.18 0.304-0.282 0.648-0.282 1.011 0 0.534 0.208 1.036 0.586 1.414l8.485 8.485c0.377 0.377 0.879 0.585 1.413 0.585s1.036-0.208 1.414-0.586 0.586-0.88 0.586-1.414-0.208-1.036-0.586-1.414l-8.485-8.485c-0.634-0.634-1.659-0.729-2.42-0.299l-2.155-2.155c-0.034-0.034-0.074-0.054-0.114-0.076 1.708-1.868 2.76-4.346 2.76-7.071 0-5.79-4.71-10.5-10.5-10.5zM22.222 20.808l8.485 8.485c0.189 0.189 0.293 0.44 0.293 0.707s-0.104 0.518-0.293 0.707c-0.379 0.377-1.035 0.377-1.414 0l-8.485-8.485c-0.188-0.189-0.293-0.44-0.293-0.707s0.104-0.518 0.293-0.707c0.189-0.188 0.44-0.293 0.707-0.293s0.517 0.104 0.707 0.293zM10.5 20c-5.238 0-9.5-4.262-9.5-9.5s4.262-9.5 9.5-9.5 9.5 4.262 9.5 9.5-4.262 9.5-9.5 9.5zM10.5 3c-4.136 0-7.5 3.364-7.5 7.5s3.364 7.5 7.5 7.5 7.5-3.364 7.5-7.5-3.364-7.5-7.5-7.5zM10.5 17c-3.584 0-6.5-2.916-6.5-6.5s2.916-6.5 6.5-6.5 6.5 2.916 6.5 6.5-2.916 6.5-6.5 6.5z"></path>
</symbol>
<symbol id="icon-hotairballoon" viewBox="0 0 28 32">
<title>hotairballoon</title>
<path d="M28 9.401c0-6.326-4.579-9.401-14-9.401s-14 3.075-14 9.401c0 7.275 13.173 15.668 13.733 16.021 0.001 0.001 0.003 0 0.005 0.001 0.011 0.007 0.023 0.007 0.035 0.013 0.072 0.038 0.148 0.064 0.227 0.064s0.155-0.026 0.227-0.063c0.011-0.006 0.024-0.006 0.035-0.013 0.001-0.001 0.003 0 0.005-0.001 0.56-0.354 13.733-8.746 13.733-16.022zM18 9.401c0 5.56-2.876 12.121-4 14.473-1.124-2.351-4-8.909-4-14.473 0-7.53 2.283-8.401 4-8.401s4 0.871 4 8.401zM9 9.401c0 4.797 1.979 10.141 3.331 13.236-2.742-2.897-7.331-8.456-7.331-13.236 0-4.69 1.918-7.327 5.977-8.132-1.324 1.448-1.977 4.142-1.977 8.132zM19 9.401c0-3.99-0.652-6.684-1.977-8.132 4.059 0.805 5.977 3.443 5.977 8.132 0 4.78-4.589 10.338-7.331 13.236 1.352-3.094 3.331-8.439 3.331-13.236zM1 9.401c0-3.971 1.987-6.47 6.156-7.632-2.114 1.532-3.156 4.064-3.156 7.632 0 4.203 3.135 8.792 5.838 11.973-3.858-3.068-8.838-7.83-8.838-11.973zM18.162 21.374c2.703-3.181 5.838-7.769 5.838-11.973 0-3.568-1.042-6.101-3.156-7.632 4.169 1.162 6.156 3.661 6.156 7.632 0 4.143-4.98 8.905-8.838 11.973zM11.5 27c-0.276 0-0.5 0.224-0.5 0.5v3c0 0.841 0.659 1.5 1.5 1.5h3c0.841 0 1.5-0.659 1.5-1.5v-3c0-0.276-0.224-0.5-0.5-0.5h-5zM16 30.5c0 0.294-0.206 0.5-0.5 0.5h-3c-0.294 0-0.5-0.206-0.5-0.5v-2.5h4v2.5z"></path>
</symbol>
<symbol id="icon-linkedin" viewBox="0 0 32 32">
<title>linkedin</title>
<path d="M19.515 11.952c-0.678 0-1.18 0.171-1.573 0.387-0.063-0.224-0.27-0.388-0.514-0.339h-2.984c-0.295-0.049-0.534 0.19-0.443 0.5v11c-0.091 0.28 0.148 0.52 0.443 0.5h2.984c0.295 0.020 0.534-0.22 0.534-0.515l-0.001-6.648c-0.001-0.003-0.012-0.321 0.189-0.54 0.161-0.174 0.438-0.263 0.821-0.263 0.638 0 0.922 0.261 1.028 0.845v6.606c-0.105 0.295 0.134 0.535 0.429 0.515h3.145c0.295 0.020 0.534-0.22 0.428-0.515v-6.828c0.105-3.472-2.368-4.705-4.486-4.705zM23.038 23h-2.076v-6.121c0-1.181-0.763-1.913-1.99-1.913-0.694 0-1.234 0.204-1.606 0.606-0.517 0.56-0.477 1.27-0.366 1.428v6h-2.022v-9.98h1.916v0.336c0 0.203 0.115 0.39 0.298 0.479s0.4 0.067 0.562-0.056l0.14-0.108c0.405-0.319 0.824-0.65 1.622-0.65 0.826 0 3.523 0.263 3.523 3.637v6.342zM11 6.966c-1.122 0-2.034 0.912-2.034 2.034s0.912 2.034 2.034 2.034 2.034-0.912 2.034-2.034-0.912-2.034-2.034-2.034zM11 9.966c-0.532 0-0.966-0.434-0.966-0.966s0.434-0.966 0.966-0.966 0.966 0.434 0.966 0.966-0.434 0.966-0.966 0.966zM12.428 11.951h-2.968c-0.295 0-0.534 0.239-0.46 0.549v11c-0.074 0.28 0.165 0.52 0.46 0.5h2.968c0.295 0.020 0.534-0.22 0.534-0.515v-11c0-0.295-0.239-0.534-0.534-0.534zM12 23h-2.006v-9.98h2.006v9.98zM16-0.034c-8.842 0-16.034 7.192-16.034 16.034s7.192 16.034 16.034 16.034 16.034-7.192 16.034-16.034-7.192-16.034-16.034-16.034zM16 30.966c-8.252 0-14.966-6.714-14.966-14.966s6.714-14.966 14.966-14.966 14.966 6.714 14.966 14.966-6.714 14.966-14.966 14.966z"></path>
</symbol>
<symbol id="icon-magnifying-glass1" viewBox="0 0 32 32">
<title>magnifying-glass1</title>
<path d="M10.5 0c-5.79 0-10.5 4.71-10.5 10.5s4.71 10.5 10.5 10.5c2.725 0 5.203-1.052 7.071-2.76 0.022 0.039 0.042 0.080 0.076 0.114l2.151 2.151c-0.18 0.304-0.282 0.648-0.282 1.011 0 0.534 0.208 1.036 0.586 1.414l8.485 8.485c0.377 0.377 0.879 0.585 1.413 0.585s1.036-0.208 1.414-0.586 0.586-0.88 0.586-1.414-0.208-1.036-0.586-1.414l-8.485-8.485c-0.634-0.634-1.659-0.729-2.42-0.299l-2.155-2.155c-0.034-0.034-0.074-0.054-0.114-0.076 1.708-1.868 2.76-4.346 2.76-7.071 0-5.79-4.71-10.5-10.5-10.5zM22.222 20.808l8.485 8.485c0.189 0.189 0.293 0.44 0.293 0.707s-0.104 0.518-0.293 0.707c-0.379 0.377-1.035 0.377-1.414 0l-8.485-8.485c-0.188-0.189-0.293-0.44-0.293-0.707s0.104-0.518 0.293-0.707c0.189-0.188 0.44-0.293 0.707-0.293s0.517 0.104 0.707 0.293zM10.5 20c-5.238 0-9.5-4.262-9.5-9.5s4.262-9.5 9.5-9.5 9.5 4.262 9.5 9.5-4.262 9.5-9.5 9.5zM10.5 3c-4.136 0-7.5 3.364-7.5 7.5s3.364 7.5 7.5 7.5 7.5-3.364 7.5-7.5-3.364-7.5-7.5-7.5zM10.5 17c-3.584 0-6.5-2.916-6.5-6.5s2.916-6.5 6.5-6.5 6.5 2.916 6.5 6.5-2.916 6.5-6.5 6.5z"></path>
</symbol>
</defs>
</svg>
